<svg width="41" height="36" viewBox="0 0 41 36" fill="none" xmlns="http://www.w3.org/2000/svg">
<path d="M38.5357 14.7032C38.3679 14.6759 38.1981 14.6634 38.0283 14.6656H9.10359L9.73429 14.3722C10.3508 14.0804 10.9116 13.6833 11.3917 13.1988L19.5029 5.0876C20.5712 4.06783 20.7507 2.42735 19.9283 1.20067C18.9711 -0.106489 17.1356 -0.390308 15.8283 0.566848C15.7227 0.644219 15.6223 0.728558 15.528 0.819314L0.860372 15.487C-0.285904 16.6319 -0.286912 18.4893 0.85808 19.6356C0.858814 19.6363 0.859639 19.6372 0.860372 19.6379L15.528 34.3055C16.6752 35.4495 18.5326 35.447 19.6767 34.2998C19.7667 34.2095 19.8507 34.1134 19.9283 34.0122C20.7507 32.7855 20.5712 31.145 19.5029 30.1253L11.4064 21.9994C10.976 21.5685 10.4812 21.2072 9.93964 20.9287L9.05958 20.5326H37.8668C39.3654 20.5883 40.6802 19.5415 40.9617 18.0685C41.221 16.4692 40.1349 14.9626 38.5357 14.7032Z" fill="#A5A5A5"/>
</svg>
